<svg width="16" height="17" viewBox="0 0 16 17" fill="none" xmlns="http://www.w3.org/2000/svg">
<path d="M5.94 14.28C5.81333 14.28 5.68667 14.2333 5.58667 14.1333C5.39333 13.94 5.39333 13.62 5.58667 13.4267L9.93333 9.08C10.2533 8.76 10.2533 8.24 9.93333 7.92L5.58667 3.57333C5.39333 3.38 5.39333 3.06 5.58667 2.86666C5.78 2.67333 6.1 2.67333 6.29333 2.86666L10.64 7.21333C10.98 7.55333 11.1733 8.01333 11.1733 8.5C11.1733 8.98666 10.9867 9.44667 10.64 9.78666L6.29333 14.1333C6.19333 14.2267 6.06667 14.28 5.94 14.28Z" fill="#0D0D0D"/>
</svg>
