<svg width="42" height="42" viewBox="0 0 42 42" fill="none" xmlns="http://www.w3.org/2000/svg">
<rect width="42" height="42" rx="10" fill="#F6EAEC"/>
<path d="M23 25C23 26.77 22.23 28.37 21 29.46C19.94 30.42 18.54 31 17 31C13.69 31 11 28.31 11 25C11 22.24 12.88 19.9 15.42 19.21C16.11 20.95 17.59 22.29 19.42 22.79C19.92 22.93 20.45 23 21 23C21.55 23 22.08 22.93 22.58 22.79C22.85 23.47 23 24.22 23 25Z" stroke="#E54660" stroke-width="1.5" stroke-linecap="round" stroke-linejoin="round"/>
<path d="M27 17C27 17.78 26.85 18.53 26.58 19.21C25.89 20.95 24.41 22.29 22.58 22.79C22.08 22.93 21.55 23 21 23C20.45 23 19.92 22.93 19.42 22.79C17.59 22.29 16.11 20.95 15.42 19.21C15.15 18.53 15 17.78 15 17C15 13.69 17.69 11 21 11C24.31 11 27 13.69 27 17Z" stroke="#E54660" stroke-width="1.5" stroke-linecap="round" stroke-linejoin="round"/>
<path d="M31 25C31 28.31 28.31 31 25 31C23.46 31 22.06 30.42 21 29.46C22.23 28.37 23 26.77 23 25C23 24.22 22.85 23.47 22.58 22.79C24.41 22.29 25.89 20.95 26.58 19.21C29.12 19.9 31 22.24 31 25Z" stroke="#E54660" stroke-width="1.5" stroke-linecap="round" stroke-linejoin="round"/>
</svg>
