<svg width="42" height="42" viewBox="0 0 42 42" fill="none" xmlns="http://www.w3.org/2000/svg">
<rect x="0.5" y="0.5" width="41" height="41" rx="9.5" fill="white"/>
<path d="M20.5 30.75C14.85 30.75 10.25 26.15 10.25 20.5C10.25 14.85 14.85 10.25 20.5 10.25C26.15 10.25 30.75 14.85 30.75 20.5C30.75 26.15 26.15 30.75 20.5 30.75ZM20.5 11.75C15.67 11.75 11.75 15.68 11.75 20.5C11.75 25.32 15.67 29.25 20.5 29.25C25.33 29.25 29.25 25.32 29.25 20.5C29.25 15.68 25.33 11.75 20.5 11.75Z" fill="#0D0D0D"/>
<path d="M31 31.75C30.81 31.75 30.62 31.68 30.47 31.53L28.47 29.53C28.18 29.24 28.18 28.76 28.47 28.47C28.76 28.18 29.24 28.18 29.53 28.47L31.53 30.47C31.82 30.76 31.82 31.24 31.53 31.53C31.38 31.68 31.19 31.75 31 31.75Z" fill="#0D0D0D"/>
<rect x="0.5" y="0.5" width="41" height="41" rx="9.5" stroke="#E6E6E6"/>
</svg>
